<?xml version="1.0" encoding="UTF-8" standalone="no"?>
<!DOCTYPE svg PUBLIC "-//W3C//DTD SVG 1.1//EN" "http://www.w3.org/Graphics/SVG/1.1/DTD/svg11.dtd">
<svg width="100%" height="100%" viewBox="0 0 1920 1080" version="1.1" xmlns="http://www.w3.org/2000/svg" xmlns:xlink="http://www.w3.org/1999/xlink" xml:space="preserve" xmlns:serif="http://www.serif.com/" style="fill-rule:evenodd;clip-rule:evenodd;stroke-linejoin:round;stroke-miterlimit:2;">
    <g id="export-site" serif:id="export site" transform="matrix(0.774095,0,0,0.307879,0,0)">
        <rect x="0" y="0" width="2480.32" height="3507.87" style="fill:none;"/>
        <g transform="matrix(0.72055,0,0,1.81167,-149.048,311.245)">
            <g transform="matrix(1.33841,-3.48266e-18,3.48266e-18,1.33841,-135979,-34192.9)">
                <path d="M103589,26349.4L103630,26387.1L103619,26399.6C103619,26399.6 103608,26390.1 103608,26390.1C103606,26392 103604,26393.9 103603,26395.7L103612,26406.2L103599,26417.4L103590,26406.9C103588,26408.6 103586,26410.2 103584,26411.9L103592,26423.3L103578,26433.1L103570,26421.7C103568,26423.2 103566,26424.6 103563,26425.9L103570,26438.1L103555,26446.4L103548,26434.3C103546,26435.5 103544,26436.6 103541,26437.8L103547,26450.5L103531,26457.2L103526,26444.5C103523,26445.4 103521,26446.3 103518,26447.2L103522,26460.4L103506,26465.4L103502,26452.2C103500,26452.9 103497,26453.5 103495,26454.1L103497,26467.7L103480,26470.9L103478,26457.3C103475,26457.7 103473,26458.1 103470,26458.4L103471,26472.2L103454,26473.7L103453,26459.8C103452,26459.9 103450,26460 103449,26460C103448,26460 103446,26460.1 103445,26460.1L103445,26474L103428,26473.6L103428,26459.7C103426,26459.6 103423,26459.4 103420,26459.2L103419,26472.9L103402,26470.8L103404,26457C103401,26456.6 103398,26456.1 103396,26455.6L103393,26469.1L103376,26465.1L103379,26451.7C103377,26450.9 103374,26450.2 103372,26449.4L103367,26462.5L103351,26456.8L103356,26443.7C103353,26442.7 103351,26441.7 103348,26440.7L103342,26453.2L103327,26445.9L103333,26433.3C103331,26432.1 103329,26430.8 103326,26429.5L103319,26441.4L103304,26432.5L103312,26420.6C103310,26419.1 103307,26417.6 103305,26416.1L103297,26427.1L103283,26416.7L103292,26405.6C103290,26403.9 103288,26402.2 103286,26400.5L103276,26410.6L103264,26398.8L103274,26388.7C103272,26386.8 103270,26384.9 103268,26382.9L103258,26392L103247,26378.9L103258,26369.9C103256,26367.8 103254,26365.7 103253,26363.6L103241,26371.5L103232,26357.4L103243,26349.5C103242,26347.3 103241,26345 103239,26342.8L103227,26349.3L103219,26334.3L103231,26327.7C103230,26325.4 103229,26323 103228,26320.6L103215,26325.8L103209,26310L103222,26304.8C103221,26302.3 103220,26299.9 103219,26297.4L103206,26301.2L103201,26284.8L103215,26281C103214,26278.5 103214,26275.9 103213,26273.3L103199,26275.7L103196,26258.9L103210,26256.6C103210,26254 103210,26251.4 103210,26248.8L103195,26249.6L103194,26232.7L103209,26231.8C103209,26229.2 103209,26226.6 103209,26224L103194,26223.3L103195,26206.3L103209,26207C103210,26204.4 103210,26201.8 103210,26199.2L103196,26197L103199,26180.2L103213,26182.4C103213,26179.9 103214,26177.3 103214,26174.8L103201,26171.1L103205,26154.7L103219,26158.4C103220,26155.9 103220,26153.4 103221,26150.9L103208,26145.8L103214,26129.9L103227,26135.1C103228,26132.7 103229,26130.3 103231,26127.9L103218,26121.4L103225,26106.2L103238,26112.9C103240,26110.6 103241,26108.3 103242,26106.1L103230,26098.2L103239,26083.9L103252,26091.9C103253,26089.8 103255,26087.7 103256,26085.6L103245,26076.4L103256,26063.3L103267,26072.5C103269,26070.6 103271,26068.6 103272,26066.8L103262,26056.3L103274,26044.4L103284,26054.8C103286,26053.1 103288,26051.4 103290,26049.7L103281,26038.2L103294,26027.7L103304,26039.1C103306,26037.6 103308,26036.1 103310,26034.6L103302,26022.2L103316,26013.1L103324,26025.5C103326,26024.2 103329,26022.9 103331,26021.6L103325,26008.5L103340,26001L103346,26014.1C103349,26013.1 103351,26012 103353,26011L103348,25997.3L103364,25991.5L103369,26005.2C103372,26004.4 103374,26003.6 103377,26002.9L103373,25988.7L103390,25984.6L103393,25998.8C103396,25998.2 103398,25997.8 103401,25997.3L103399,25982.8L103416,25980.4L103418,25995C103421,25994.7 103423,25994.5 103426,25994.3L103426,25979.6L103442,25979.1L103443,25993.7C103446,25993.8 103448,25993.8 103451,25993.9L103452,25979.3L103469,25980.6L103468,25995.2C103470,25995.5 103473,25995.8 103475,25996.2L103478,25981.8L103495,25984.8L103492,25999.2C103495,25999.8 103497,26000.4 103500,26001L103504,25987L103520,25991.8L103516,26005.8C103518,26006.7 103521,26007.5 103523,26008.5L103529,25995L103545,26001.5L103539,26015C103541,26016.1 103544,26017.2 103546,26018.4L103553,26005.6L103568,26013.7L103561,26026.5C103563,26027.9 103565,26029.2 103568,26030.6L103576,26018.6L103590,26028.3L103582,26040.3C103584,26041.9 103586,26043.5 103588,26045.1L103597,26034.1L103610,26045.2L103601,26056.2C103602,26058 103604,26059.8 103606,26061.7L103617,26051.7L103628,26064.1L103588,26102.2C103551,26059.5 103496,26033.1 103436,26035C103330,26038.3 103247,26126.8 103250,26232.5C103253,26338.2 103342,26421.3 103448,26418.1C103505,26416.3 103555,26389.9 103589,26349.4ZM103188,25822.7C103209,25821.8 103212,25820.9 103236,25818.6C103250,25817.3 103261,25815 103268,25813.4C103272,25812.2 103274,25813.6 103272,25817.2C103266,25827.2 103254,25838.9 103242,25847C103228,25857.4 103201,25865.7 103190,25866.6L103159,25968.1L103255,26048.1C103247,26056.3 103240,26065.1 103233,26074.3L103149,26003.8L103084,26220.5C103096,26227.8 103105,26238.8 103110,26252.1L103184,26243C103184,26253.5 103186,26263.8 103187,26273.9L103114,26283C103111,26310.2 103090,26333.4 103062,26338.8C103055,26340.1 103048,26340.3 103042,26339.5L103027,26388.5L103053,26392.5L103053,26404.8L103013,26411.2L103012,26411.2L103188,25822.7ZM103603,26328.6C103605,26325.6 103607,26323.3 103610,26321.5C103612,26319.8 103615,26318.8 103618,26318.5C103620,26318.3 103623,26319 103626,26320.6L103619,26331.2C103618,26330.4 103616,26330.2 103615,26330.6C103613,26331 103612,26331.9 103611,26333.3C103611,26334.8 103610,26336.1 103610,26337.4C103610,26338.7 103611,26339.7 103612,26340.5C103613,26341.1 103614,26341.3 103615,26341C103616,26340.7 103618,26340.3 103619,26339.5C103620,26338.8 103621,26337.7 103623,26336.2C103625,26334.1 103627,26332.5 103629,26331.3C103631,26330.2 103633,26329.5 103635,26329.3C103638,26329.1 103640,26329.8 103643,26331.4C103647,26333.8 103649,26337 103649,26341.1C103650,26345.2 103648,26349.5 103646,26353.9C103643,26358.4 103639,26361.3 103636,26362.7C103632,26364.1 103628,26363.7 103624,26361.5L103631,26350.7C103632,26351.5 103633,26351.7 103635,26351.2C103636,26350.8 103637,26349.9 103638,26348.5C103639,26347.3 103639,26346.2 103639,26345C103639,26343.9 103638,26343 103637,26342.2C103635,26341.4 103634,26341.3 103632,26342.1C103631,26342.9 103629,26344.3 103626,26346.4C103624,26348.5 103622,26350.1 103620,26351.2C103618,26352.4 103616,26353 103614,26353.3C103611,26353.5 103609,26352.8 103607,26351.3C103604,26349.9 103602,26347.9 103601,26345.6C103600,26343.2 103600,26340.5 103600,26337.6C103600,26334.6 103601,26331.6 103603,26328.6ZM103658,26304.7L103649,26301.3L103644,26316L103635,26312.8L103641,26298.1L103631,26294.4L103625,26311L103616,26307.7L103626,26280.1L103671,26297.1L103661,26324.6L103652,26321.3L103658,26304.7ZM103639,26261.9L103636,26277L103628,26275.3L103633,26248.7L103680,26257.6L103678,26269.1L103639,26261.9ZM103429,26193.2C103433,26191.6 103437,26190.7 103442,26190.7C103461,26190.6 103477,26206.6 103477,26226.3C103478,26246.1 103462,26262.2 103442,26262.3C103429,26262.3 103418,26255.8 103412,26245.9L103265,26264.2C103263,26254.2 103262,26243.9 103261,26233.3L103402,26215.7L103293,26124.4C103299,26115 103307,26106.2 103315,26098.2L103429,26193.2ZM103656,26194.2C103661,26194.1 103665,26194.9 103669,26196.8C103673,26198.7 103676,26201.5 103678,26205C103680,26208.6 103682,26212.8 103682,26217.4C103682,26223.1 103681,26228 103678,26232.2C103675,26236.4 103671,26239.3 103666,26240.9L103665,26228C103667,26227 103669,26225.6 103670,26223.8C103671,26222 103671,26219.9 103671,26217.7C103671,26214.1 103670,26211.2 103667,26209.1C103664,26207 103661,26206 103657,26206.2C103653,26206.3 103649,26207.6 103647,26209.9C103644,26212.3 103643,26215.2 103643,26218.8C103644,26221.1 103644,26223 103645,26224.8C103646,26226.5 103648,26227.8 103650,26228.6L103651,26241.5C103645,26240.3 103641,26237.8 103638,26233.9C103635,26229.9 103633,26225.1 103633,26219.4C103633,26214.7 103634,26210.5 103635,26206.8C103637,26203 103640,26200 103644,26197.8C103647,26195.6 103652,26194.4 103656,26194.2ZM103678,26179.2L103642,26172.5L103627,26177.1L103624,26165.9L103639,26161.3L103665,26136.1L103669,26148.9L103652,26163.6L103674,26166.6L103678,26179.2ZM103614,26094.5C103618,26092 103622,26090.7 103626,26090.5C103631,26090.3 103635,26091.3 103638,26093.3C103642,26095.4 103645,26098.4 103647,26102.4C103650,26107.3 103652,26112.2 103651,26117.3C103651,26122.3 103649,26126.8 103645,26130.6L103638,26119.6C103639,26117.8 103640,26115.8 103640,26113.8C103640,26111.7 103639,26109.7 103638,26107.8C103636,26104.7 103634,26102.9 103630,26102.3C103627,26101.7 103624,26102.5 103620,26104.7C103617,26106.8 103614,26109.5 103613,26112.8C103612,26116 103613,26119.1 103615,26122.2C103616,26124.1 103617,26125.6 103619,26126.5C103621,26127.5 103623,26127.8 103625,26127.6L103632,26138.6C103627,26140.1 103622,26140 103617,26138C103612,26136.1 103609,26132.7 103606,26127.8C103603,26123.9 103602,26119.8 103602,26115.5C103602,26111.3 103603,26107.4 103605,26103.7C103607,26100 103610,26097 103614,26094.5Z" style="fill:rgb(224,21,21);"/>
            </g>
            <g transform="matrix(1.33841,0,0,1.33841,-135979,-34192.9)">
                <path d="M103012,26411.2L102985,26411.3C102978,26411.3 102973,26405.8 102973,26398.9C102973,26392 102978,26386.4 102985,26386.4L103005,26386.3L103021,26333.3C103000,26322.8 102985,26300.9 102985,26275.7C102985,26261.8 102989,26248.8 102997,26238.3L102772,25967.3C102766,25984.8 102760,26002.2 102752,26019.6C102824,26061.7 102873,26139.5 102873,26228.8C102874,26363.2 102765,26472.8 102631,26473.5C102496,26474.2 102387,26365.6 102386,26231.2C102386,26096.8 102494,25987.1 102628,25986.5C102661,25986.3 102693,25992.6 102721,26004.3C102738,25958.3 102752,25911.8 102761,25866.2C102762,25861 102766,25856.8 102770,25854C102770,25852.9 102770,25851.8 102770,25850.8C102769,25850.5 102768,25850.1 102768,25849.9C102756,25845.9 102737,25841 102719,25838.7C102705,25836.9 102691,25836.4 102682,25840.1C102674,25843.3 102669,25849.9 102667,25857.7C102666,25865.6 102668,25874.6 102673,25883C102680,25892 102687,25898.1 102695,25902.3C102705,25907.7 102715,25910.3 102724,25912.3C102732,25913.9 102736,25921.1 102735,25928.3C102733,25935.5 102726,25940.1 102719,25938.5C102707,25936 102694,25932.5 102682,25925.8C102671,25919.7 102660,25911 102651,25898C102641,25883 102638,25866.9 102641,25852.8C102644,25836.2 102655,25822.2 102671,25815.3C102684,25810.2 102703,25809.7 102722,25812.1C102746,25815.2 102771,25822.4 102783,25827C102788,25828.9 102791,25830.7 102792,25831.8C102794,25833.1 102797,25836 102797,25841.7C102798,25843.5 102798,25847.3 102797,25852.2C102797,25853.8 102796,25855.6 102796,25857.6C102800,25862.2 102802,25868.7 102801,25875.3C102800,25878.2 102799,25881.1 102798,25884L103132,25939.2L103157,25856.3C103156,25855.9 103154,25855.3 103153,25854.8C103147,25852.3 103141,25848.7 103135,25843.1C103123,25842.1 103110,25841.3 103096,25840.3C103070,25838.3 103061,25835.3 103064,25824.7C103066,25817.4 103110,25825.7 103152,25824.1C103164,25823.6 103177,25823.1 103188,25822.7L103179,25849.9C103175,25849.1 103171,25848.4 103168,25847.8C103163,25846.7 103158,25845.9 103153,25845.2C103154,25845.6 103155,25846.1 103156,25846.5C103164,25849.5 103172,25850.5 103179,25851.3L103012,26411.2ZM102707,26040.2C102683,26030.3 102656,26024.8 102629,26025C102516,26025.5 102424,26117.8 102425,26231C102425,26344.1 102518,26435.5 102631,26435C102744,26434.4 102835,26342.1 102835,26229C102834,26155.5 102795,26091.2 102737,26055.3C102736,26057.8 102735,26060.2 102734,26062.7C102706,26123.5 102674,26182.5 102639,26236.5C102635,26242.9 102627,26244.8 102620,26240.8C102614,26236.9 102612,26228.5 102616,26222.1C102648,26168.4 102678,26109.9 102704,26049.5C102705,26046.4 102706,26043.3 102707,26040.2ZM102789,25917.2C102788,25921.2 102787,25925.1 102785,25929.1L103023,26216.4C103031,26212.8 103040,26210.8 103049,26210.7C103050,26210.7 103051,26210.7 103051,26210.7L103123,25972.3L102789,25917.2Z"/>
            </g>
        </g>
    </g>
</svg>
