<?xml version="1.0" encoding="UTF-8" standalone="no"?>
<!DOCTYPE svg PUBLIC "-//W3C//DTD SVG 1.1//EN" "http://www.w3.org/Graphics/SVG/1.1/DTD/svg11.dtd">
<svg width="100%" height="100%" viewBox="0 0 1920 1080" version="1.1" xmlns="http://www.w3.org/2000/svg" xmlns:xlink="http://www.w3.org/1999/xlink" xml:space="preserve" xmlns:serif="http://www.serif.com/" style="fill-rule:evenodd;clip-rule:evenodd;stroke-linejoin:round;stroke-miterlimit:2;">
    <g id="export-site" serif:id="export site" transform="matrix(0.774095,0,0,0.307879,0,0)">
        <rect x="0" y="0" width="2480.32" height="3507.87" style="fill:none;"/>
        <g transform="matrix(0.964392,0,0,2.42476,-98128.5,-61832.1)">
            <path id="fourche" d="M102770,25935.4C102770,25934.3 102770,25933.2 102770,25932.1C102769,25931.8 102768,25931.5 102768,25931.2C102756,25927.3 102737,25922.3 102719,25920C102705,25918.3 102691,25917.7 102682,25921.5C102674,25924.7 102669,25931.2 102667,25939C102666,25946.9 102668,25955.9 102673,25964.3C102680,25973.4 102687,25979.4 102695,25983.6C102705,25989.1 102715,25991.6 102724,25993.7C102732,25995.3 102736,26002.4 102735,26009.6C102733,26016.9 102726,26021.4 102719,26019.8C102707,26017.3 102694,26013.9 102682,26007.1C102671,26001 102660,25992.3 102651,25979.3C102641,25964.4 102638,25948.2 102641,25934.2C102644,25917.5 102655,25903.5 102671,25896.7C102684,25891.6 102703,25891.1 102722,25893.5C102746,25896.5 102771,25903.8 102783,25908.3C102788,25910.2 102791,25912.1 102792,25913.1C102794,25914.5 102797,25917.4 102797,25923.1C102798,25924.9 102798,25928.7 102797,25933.5C102797,25935.2 102796,25937 102796,25938.9C102800,25943.6 102802,25950.1 102801,25956.6C102785,26018.9 102762,26082.4 102734,26144C102706,26204.8 102674,26263.9 102639,26317.8C102635,26324.2 102627,26326.2 102620,26322.2C102614,26318.2 102612,26309.8 102616,26303.5C102648,26249.8 102678,26191.2 102704,26130.9C102729,26070.5 102748,26008.3 102761,25947.6C102762,25942.4 102766,25938.1 102770,25935.4Z"/>
        </g>
    </g>
</svg>
