<?xml version="1.0" encoding="UTF-8" standalone="no"?>
<!DOCTYPE svg PUBLIC "-//W3C//DTD SVG 1.1//EN" "http://www.w3.org/Graphics/SVG/1.1/DTD/svg11.dtd">
<svg width="100%" height="100%" viewBox="0 0 1920 1080" version="1.1" xmlns="http://www.w3.org/2000/svg" xmlns:xlink="http://www.w3.org/1999/xlink" xml:space="preserve" xmlns:serif="http://www.serif.com/" style="fill-rule:evenodd;clip-rule:evenodd;stroke-linejoin:round;stroke-miterlimit:2;">
    <g id="export-site" serif:id="export site" transform="matrix(0.774095,0,0,0.307879,0,0)">
        <rect x="0" y="0" width="2480.32" height="3507.87" style="fill:none;"/>
        <g transform="matrix(0.964392,0,1.67295e-18,2.42476,-98128.5,-61634.9)">
            <path id="roueAvant" d="M102628,25986.5C102763,25985.8 102873,26094.4 102873,26228.8C102874,26363.2 102765,26472.8 102631,26473.5C102496,26474.2 102387,26365.6 102386,26231.2C102386,26096.8 102494,25987.1 102628,25986.5ZM102629,26025C102742,26024.4 102834,26115.8 102835,26229C102835,26342.1 102744,26434.4 102631,26435C102518,26435.5 102425,26344.1 102425,26231C102424,26117.8 102516,26025.5 102629,26025Z"/>
        </g>
    </g>
</svg>
