<?xml version="1.0" encoding="UTF-8" standalone="no"?>
<!DOCTYPE svg PUBLIC "-//W3C//DTD SVG 1.1//EN" "http://www.w3.org/Graphics/SVG/1.1/DTD/svg11.dtd">
<svg width="100%" height="100%" viewBox="0 0 1920 1080" version="1.1" xmlns="http://www.w3.org/2000/svg" xmlns:xlink="http://www.w3.org/1999/xlink" xml:space="preserve" xmlns:serif="http://www.serif.com/" style="fill-rule:evenodd;clip-rule:evenodd;stroke-linejoin:round;stroke-miterlimit:2;">
    <g id="export-site" serif:id="export site" transform="matrix(0.774095,0,0,0.307879,0,0)">
        <rect x="0" y="0" width="2480.32" height="3507.87" style="fill:none;"/>
        <g transform="matrix(0.964392,-1.68251e-17,-6.69181e-18,2.42476,-98128.5,-61634.9)">
            <path id="roueArrière" d="M103443,25993.7C103446,25993.8 103448,25993.8 103451,25993.9L103452,25979.3L103469,25980.6L103468,25995.2C103470,25995.5 103473,25995.8 103475,25996.2L103478,25981.8L103495,25984.8L103492,25999.2C103495,25999.8 103497,26000.4 103500,26001L103504,25987L103520,25991.8L103516,26005.8C103518,26006.7 103521,26007.5 103523,26008.5L103529,25995L103545,26001.5L103539,26015C103541,26016.1 103544,26017.2 103546,26018.4L103553,26005.6L103568,26013.7L103561,26026.5C103563,26027.9 103565,26029.2 103568,26030.6L103576,26018.6L103590,26028.3L103582,26040.3C103584,26041.9 103586,26043.5 103588,26045.1L103597,26034.1L103610,26045.2L103601,26056.2C103602,26058 103604,26059.8 103606,26061.7L103617,26051.7L103628,26064.1L103618,26074.1C103619,26076 103621,26078 103623,26080L103634,26071.3L103645,26084.9L103633,26093.6C103635,26095.7 103636,26097.9 103637,26100.1L103650,26092.7L103659,26107.3L103646,26114.6C103647,26116.9 103649,26119.2 103650,26121.6L103663,26115.5L103670,26131L103657,26137C103658,26139.4 103659,26141.8 103660,26144.2L103673,26139.7L103679,26155.8L103665,26160.3C103666,26162.8 103667,26165.3 103667,26167.9L103681,26164.8L103685,26181.4L103671,26184.5C103672,26187 103672,26189.6 103672,26192.2L103687,26190.6L103688,26207.5L103674,26209.1C103674,26211.7 103675,26214.3 103675,26216.9L103689,26216.8L103689,26233.8L103675,26233.9C103675,26236.5 103675,26239.1 103674,26241.7L103689,26243.1L103687,26260L103673,26258.6C103672,26261.2 103672,26263.8 103672,26266.4L103685,26269.3L103682,26285.9L103668,26283C103667,26285.5 103667,26288.1 103666,26290.6L103680,26295L103674,26311.1L103661,26306.7C103660,26309.2 103659,26311.7 103658,26314.1L103671,26319.8L103664,26335.3L103651,26329.6C103650,26331.9 103649,26334.3 103648,26336.6L103660,26343.7L103651,26358.3L103639,26351.3C103638,26353.5 103636,26355.7 103635,26357.8L103646,26366.2L103636,26379.8L103625,26371.5C103623,26373.6 103621,26375.6 103620,26377.6L103630,26387.1L103619,26399.6L103608,26390.1C103606,26392 103604,26393.9 103603,26395.7L103612,26406.2L103599,26417.4L103590,26406.9C103588,26408.6 103586,26410.2 103584,26411.9L103592,26423.3L103578,26433.1L103570,26421.7C103568,26423.2 103566,26424.6 103563,26425.9L103570,26438.1L103555,26446.4L103548,26434.3C103546,26435.5 103544,26436.6 103541,26437.8L103547,26450.5L103531,26457.2L103526,26444.5C103523,26445.4 103521,26446.3 103518,26447.2L103522,26460.4L103506,26465.4L103502,26452.2C103500,26452.9 103497,26453.5 103495,26454.1L103497,26467.7L103480,26470.9L103478,26457.3C103475,26457.7 103473,26458.1 103470,26458.4L103471,26472.2L103454,26473.7L103453,26459.8C103452,26459.9 103450,26460 103449,26460C103448,26460 103446,26460.1 103445,26460.1L103445,26474L103428,26473.6L103428,26459.7C103426,26459.6 103423,26459.4 103420,26459.2L103419,26472.9L103402,26470.8L103404,26457C103401,26456.6 103398,26456.1 103396,26455.6L103393,26469.1L103376,26465.1L103379,26451.7C103377,26450.9 103374,26450.2 103372,26449.4L103367,26462.5L103351,26456.8L103356,26443.7C103353,26442.7 103351,26441.7 103348,26440.7L103342,26453.2L103327,26445.9L103333,26433.3C103331,26432.1 103329,26430.8 103326,26429.5L103319,26441.4L103304,26432.5L103312,26420.6C103310,26419.1 103307,26417.6 103305,26416.1L103297,26427.1L103283,26416.7L103292,26405.6C103290,26403.9 103288,26402.2 103286,26400.5L103276,26410.6L103264,26398.8L103274,26388.7C103272,26386.8 103270,26384.9 103268,26382.9L103258,26392L103247,26378.9L103258,26369.9C103256,26367.8 103254,26365.7 103253,26363.6L103241,26371.5L103232,26357.4L103243,26349.5C103242,26347.3 103241,26345 103239,26342.8L103227,26349.3L103219,26334.3L103231,26327.7C103230,26325.4 103229,26323 103228,26320.6L103215,26325.8L103209,26310L103222,26304.8C103221,26302.3 103220,26299.9 103219,26297.4L103206,26301.2L103201,26284.8L103215,26281C103214,26278.5 103214,26275.9 103213,26273.3L103199,26275.7L103196,26258.9L103210,26256.6C103210,26254 103210,26251.4 103210,26248.8L103195,26249.6L103194,26232.7L103209,26231.8C103209,26229.2 103209,26226.6 103209,26224L103194,26223.3L103195,26206.3L103209,26207C103210,26204.4 103210,26201.8 103210,26199.2L103196,26197L103199,26180.2L103213,26182.4C103213,26179.9 103214,26177.3 103214,26174.8L103201,26171.1L103205,26154.7L103219,26158.4C103220,26155.9 103220,26153.4 103221,26150.9L103208,26145.8L103214,26129.9L103227,26135.1C103228,26132.7 103229,26130.3 103231,26127.9L103218,26121.4L103225,26106.2L103238,26112.9C103240,26110.6 103241,26108.3 103242,26106.1L103230,26098.2L103239,26084L103252,26091.9C103253,26089.8 103255,26087.7 103256,26085.6L103245,26076.4L103256,26063.3L103267,26072.5C103269,26070.6 103271,26068.6 103272,26066.8L103262,26056.3L103274,26044.4L103284,26054.8C103286,26053.1 103288,26051.4 103290,26049.7L103281,26038.2L103294,26027.7L103304,26039.1C103306,26037.6 103308,26036.1 103310,26034.6L103302,26022.2L103316,26013.1L103324,26025.5C103326,26024.2 103329,26022.9 103331,26021.7L103325,26008.5L103340,26001L103346,26014.1C103349,26013.1 103351,26012 103353,26011L103348,25997.3L103364,25991.5L103369,26005.2C103372,26004.4 103374,26003.6 103377,26002.9L103373,25988.7L103390,25984.6L103393,25998.8C103396,25998.2 103398,25997.8 103401,25997.3L103399,25982.8L103416,25980.4L103418,25995C103421,25994.7 103423,25994.5 103426,25994.3L103426,25979.6L103442,25979.1L103443,25993.7ZM103436,26035C103541,26031.7 103630,26114.8 103633,26220.6C103637,26326.3 103553,26414.8 103448,26418.1C103342,26421.3 103253,26338.2 103250,26232.5C103247,26126.8 103330,26038.3 103436,26035Z"/>
        </g>
    </g>
</svg>
