<?xml version="1.0" encoding="UTF-8" standalone="no"?>
<!DOCTYPE svg PUBLIC "-//W3C//DTD SVG 1.1//EN" "http://www.w3.org/Graphics/SVG/1.1/DTD/svg11.dtd">
<svg width="100%" height="100%" viewBox="0 0 1920 1080" version="1.1" xmlns="http://www.w3.org/2000/svg" xmlns:xlink="http://www.w3.org/1999/xlink" xml:space="preserve" xmlns:serif="http://www.serif.com/" style="fill-rule:evenodd;clip-rule:evenodd;stroke-linejoin:round;stroke-miterlimit:2;">
    <g id="export-site" serif:id="export site" transform="matrix(0.774095,0,0,0.307879,0,0)">
        <rect x="0" y="0" width="2480.32" height="3507.87" style="fill:none;"/>
        <g transform="matrix(0.964392,0,1.07069e-16,2.42476,-98128.5,-61832.1)">
            <path id="selle" d="M103135,25924.5C103141,25930.1 103147,25933.7 103153,25936.1C103164,25940.6 103176,25940.9 103187,25942.7C103198,25944.5 103212,25942.4 103222,25936.6C103223,25935.7 103225,25934.7 103226,25933.6C103233,25932.7 103238,25931.1 103242,25928.4C103254,25920.3 103266,25908.5 103272,25898.5C103274,25894.9 103272,25893.5 103268,25894.7C103261,25896.4 103250,25898.6 103236,25900C103211,25902.4 103209,25903.2 103185,25904.2C103175,25904.5 103163,25905 103152,25905.4C103110,25907 103066,25898.8 103064,25906C103061,25916.6 103070,25919.7 103096,25921.6C103110,25922.7 103123,25923.4 103135,25924.5ZM103153,25926.5C103154,25927 103155,25927.4 103156,25927.8C103167,25932.1 103178,25932.2 103188,25933.9C103193,25934.6 103198,25934.6 103202,25933.9C103188,25933 103175,25930.6 103168,25929.1C103163,25928.1 103158,25927.2 103153,25926.5Z"/>
        </g>
    </g>
</svg>
