<svg width="60" height="60" viewBox="0 0 60 60" fill="none" xmlns="http://www.w3.org/2000/svg">
<path d="M17.5 26.475L28.225 37.075C28.4574 37.3093 28.7339 37.4953 29.0386 37.6222C29.3432 37.7491 29.67 37.8145 30 37.8145C30.33 37.8145 30.6568 37.7491 30.9614 37.6222C31.2661 37.4953 31.5426 37.3093 31.775 37.075L42.375 26.475C42.6093 26.2426 42.7953 25.9661 42.9222 25.6614C43.0492 25.3568 43.1145 25.03 43.1145 24.7C43.1145 24.3699 43.0492 24.0432 42.9222 23.7385C42.7953 23.4339 42.6093 23.1574 42.375 22.925C41.9066 22.4593 41.273 22.198 40.6125 22.198C39.952 22.198 39.3184 22.4593 38.85 22.925L30 31.775L21.15 22.925C20.6844 22.4631 20.0559 22.2027 19.4 22.2C19.071 22.1981 18.7448 22.2611 18.4402 22.3855C18.1356 22.5099 17.8586 22.6933 17.625 22.925C17.3823 23.149 17.1864 23.4189 17.0487 23.7191C16.9109 24.0193 16.834 24.3438 16.8224 24.6739C16.8107 25.004 16.8646 25.3331 16.981 25.6422C17.0973 25.9514 17.2737 26.2344 17.5 26.475Z" fill="#E01515"/>
</svg>
