<?xml version="1.0" encoding="UTF-8" standalone="no"?>
<!DOCTYPE svg PUBLIC "-//W3C//DTD SVG 1.1//EN" "http://www.w3.org/Graphics/SVG/1.1/DTD/svg11.dtd">
<svg width="100%" height="100%" viewBox="0 0 512 512" version="1.1" xmlns="http://www.w3.org/2000/svg" xmlns:xlink="http://www.w3.org/1999/xlink" xml:space="preserve" xmlns:serif="http://www.serif.com/" style="fill-rule:evenodd;clip-rule:evenodd;stroke-linejoin:round;stroke-miterlimit:2;">
    <rect id="Plan-de-travail1" serif:id="Plan de travail1" x="-0" y="-0" width="512" height="512" style="fill:none;"/>
    <clipPath id="_clip1">
        <rect id="Plan-de-travail11" serif:id="Plan de travail1" x="-0" y="-0" width="512" height="512"/>
    </clipPath>
    <g clip-path="url(#_clip1)">
        <g>
            <g transform="matrix(3.06522,0,0,2.42268,-119.652,-87.0014)">
                <path d="M206.071,93.191C206.071,61.377 185.686,35.586 160.541,35.586L84.566,35.586C59.42,35.586 39.035,61.377 39.035,93.191L39.035,189.316C39.035,221.131 59.42,246.922 84.566,246.922L160.541,246.922C185.686,246.922 206.071,221.131 206.071,189.316L206.071,93.191Z" style="fill:white;"/>
            </g>
            <g transform="matrix(1.03921,0,0,1.03921,-10.0778,-9.95875)">
                <path d="M248.122,345.672L239.076,345.717C236.731,345.728 234.818,343.834 234.807,341.49C234.795,339.145 236.689,337.232 239.034,337.22L245.928,337.186L251.338,319.102C244.108,315.51 239.117,308.064 239.075,299.446C239.051,294.699 240.533,290.293 243.07,286.68L166.548,194.236C164.419,200.203 162.125,206.163 159.685,212.091C184.213,226.439 200.758,252.999 200.908,283.444C201.136,329.295 164.095,366.705 118.244,366.932C72.393,367.159 34.984,330.118 34.757,284.267C34.53,238.416 71.57,201.007 117.421,200.78C128.609,200.725 139.294,202.888 149.054,206.855C154.792,191.187 159.441,175.328 162.707,159.764C163.113,157.996 164.169,156.544 165.564,155.604C165.624,155.219 165.68,154.847 165.73,154.492C165.439,154.383 165.141,154.277 164.851,154.179C160.835,152.834 154.411,151.142 148.14,150.358C143.364,149.761 138.678,149.577 135.525,150.857C132.836,151.948 131.117,154.186 130.625,156.847C130.127,159.545 130.838,162.604 132.778,165.472C134.864,168.558 137.375,170.621 139.998,172.063C143.386,173.926 146.958,174.8 150.118,175.493C152.581,176.034 154.142,178.473 153.602,180.936C153.061,183.399 150.622,184.96 148.159,184.42C144.227,183.556 139.81,182.387 135.595,180.069C131.823,177.994 128.211,175.027 125.211,170.588C121.763,165.487 120.758,159.985 121.645,155.187C122.695,149.509 126.353,144.726 132.092,142.397C136.392,140.652 142.76,140.486 149.273,141.301C157.572,142.34 166.109,144.819 170.082,146.366C171.756,147.018 172.85,147.657 173.303,148.017C173.879,148.476 174.895,149.463 175.084,151.407C175.144,152.022 175.089,153.321 174.871,154.967C174.797,155.53 174.707,156.151 174.608,156.803C175.992,158.405 176.621,160.623 176.111,162.842C175.862,163.841 175.607,164.841 175.346,165.841L289.337,184.653L297.793,156.383C297.286,156.227 296.78,156.05 296.276,155.85C294.192,155.019 292.156,153.789 290.252,151.885C286.157,151.519 281.801,151.271 276.98,150.913C267.973,150.242 264.889,149.195 266.024,145.58C266.799,143.111 281.616,145.933 296.058,145.384C300.279,145.224 304.681,145.059 308.169,144.926L305.4,154.186C303.81,153.932 302.452,153.672 301.519,153.473C299.824,153.113 298.116,152.82 296.378,152.574C296.718,152.739 297.059,152.889 297.402,153.025C300.003,154.062 302.689,154.385 305.25,154.685L248.122,345.672ZM144.328,219.116C143.898,220.18 143.463,221.241 143.023,222.3C134.483,242.89 124.225,262.854 113.199,281.173C111.846,283.348 112.513,286.212 114.688,287.565C116.864,288.917 119.728,288.25 121.081,286.075C132.9,267.676 143.89,247.531 153.325,226.777C153.704,225.943 154.08,225.108 154.454,224.271C174.335,236.523 187.648,258.454 187.773,283.509C187.964,322.11 156.78,353.605 118.179,353.796C79.578,353.987 48.084,322.803 47.893,284.202C47.702,245.601 78.885,214.107 117.486,213.916C126.982,213.869 136.048,215.721 144.328,219.116ZM172.168,177.158C171.763,178.505 171.348,179.853 170.924,181.201L252.067,279.227C254.8,277.992 257.83,277.298 261.021,277.282C261.224,277.281 261.426,277.283 261.628,277.287L285.962,195.937L172.168,177.158Z"/>
            </g>
            <g transform="matrix(1.03921,0,0,1.03921,-10.0778,-9.95875)">
                <path d="M395.283,203.264C396.173,203.268 397.06,203.287 397.943,203.32L398.319,198.331L404.096,198.767L403.72,203.75C404.603,203.848 405.481,203.96 406.36,204.088L407.263,199.176L412.961,200.223L412.059,205.129C412.927,205.321 413.789,205.527 414.649,205.747L416.067,200.967L421.621,202.614L420.204,207.393C421.046,207.676 421.882,207.973 422.713,208.285L424.63,203.683L429.978,205.911L428.061,210.514C428.867,210.885 429.667,211.27 430.46,211.668L432.856,207.294L437.937,210.078L435.54,214.453C436.301,214.908 437.055,215.375 437.803,215.856L440.652,211.759L445.408,215.067L442.559,219.163C443.269,219.696 443.969,220.239 444.662,220.796L447.929,217.027L452.307,220.821L449.043,224.587C449.693,225.192 450.332,225.807 450.962,226.434L454.605,223.038L458.555,227.277L454.92,230.665C455.503,231.335 456.074,232.015 456.635,232.705L460.605,229.725L464.082,234.359L460.123,237.33C460.632,238.058 461.128,238.794 461.614,239.541L465.86,237.012L468.825,241.989L464.593,244.51C465.021,245.289 465.438,246.075 465.841,246.87L470.311,244.815L472.731,250.079L468.273,252.128C468.616,252.948 468.946,253.775 469.263,254.609L473.908,253.048L475.754,258.539L471.118,260.098C471.372,260.95 471.612,261.808 471.837,262.672L476.61,261.616L477.862,267.272L473.095,268.328C473.256,269.201 473.402,270.08 473.534,270.965L478.385,270.422L479.03,276.18L474.183,276.722C474.251,277.605 474.304,278.496 474.342,279.392L479.215,279.368L479.244,285.161L474.382,285.185C474.357,286.082 474.316,286.975 474.26,287.859L479.09,288.351L478.503,294.114L473.689,293.624C473.568,294.512 473.432,295.395 473.282,296.272L478.011,297.269L476.814,302.938L472.098,301.943C471.883,302.813 471.653,303.678 471.41,304.534L475.99,306.023L474.198,311.532L469.625,310.045C469.318,310.887 468.996,311.723 468.663,312.548L473.05,314.512L470.683,319.8L466.298,317.837C465.903,318.64 465.495,319.435 465.074,320.224L469.225,322.641L466.309,327.647L462.16,325.231C461.682,325.986 461.193,326.733 460.689,327.474L464.558,330.317L461.126,334.985L457.26,332.144C456.705,332.845 456.138,333.537 455.56,334.219L459.101,337.454L455.193,341.731L451.657,338.5C451.031,339.14 450.393,339.768 449.747,340.385L452.917,343.971L448.577,347.808L445.413,344.231C444.723,344.8 444.023,345.357 443.313,345.904L446.075,349.793L441.352,353.148L438.597,349.269C437.85,349.762 437.093,350.243 436.329,350.711L438.654,354.856L433.601,357.69L431.282,353.554C430.486,353.965 429.682,354.363 428.872,354.747L430.736,359.101L425.411,361.382L423.549,357.035C422.714,357.358 421.873,357.667 421.024,357.962L422.413,362.481L416.875,364.183L415.486,359.665C414.623,359.897 413.753,360.114 412.876,360.317L413.777,364.958L408.09,366.061L407.188,361.417C406.305,361.555 405.416,361.678 404.524,361.786L404.927,366.502L399.154,366.995L398.751,362.276C398.285,362.299 397.812,362.318 397.338,362.333C396.912,362.346 396.487,362.356 396.063,362.362L395.963,367.098L390.171,366.975L390.271,362.243C389.372,362.191 388.476,362.125 387.589,362.045L386.986,366.737L381.24,365.999L381.842,361.311C380.953,361.164 380.069,361.003 379.195,360.827L378.099,365.425L372.463,364.08L373.56,359.482C372.695,359.242 371.835,358.987 370.981,358.718L369.401,363.175L363.941,361.24L365.523,356.775C364.689,356.444 363.862,356.098 363.041,355.739L360.992,360.014L355.768,357.51L357.822,353.224C357.029,352.806 356.243,352.374 355.467,351.93L352.966,355.978L348.038,352.932L350.545,348.874C349.802,348.374 349.067,347.862 348.342,347.339L345.414,351.111L340.838,347.559L343.772,343.778C343.086,343.203 342.411,342.617 341.745,342.02L338.423,345.47L334.249,341.451L337.576,337.996C336.956,337.353 336.347,336.699 335.747,336.034L332.07,339.117L328.348,334.678L332.026,331.593C331.477,330.887 330.94,330.172 330.415,329.448L326.429,332.126L323.199,327.316L327.186,324.638C326.716,323.879 326.257,323.111 325.812,322.335L321.562,324.574L318.862,319.449L323.114,317.208C322.727,316.404 322.354,315.591 321.994,314.772L317.525,316.548L315.385,311.165L319.859,309.386C319.561,308.545 319.277,307.698 319.007,306.844L314.365,308.139L312.808,302.558L317.462,301.26C317.256,300.394 317.065,299.522 316.888,298.644L312.115,299.441L311.161,293.727L315.948,292.927C315.836,292.046 315.738,291.159 315.655,290.267L310.803,290.554L310.461,284.77L315.326,284.483C315.307,283.586 315.303,282.692 315.313,281.808L310.442,281.577L310.717,275.79L315.592,276.022C315.668,275.129 315.758,274.24 315.863,273.362L311.038,272.613L311.926,266.888L316.756,267.637C316.926,266.759 317.11,265.887 317.308,265.022L312.582,263.763L314.073,258.165L318.809,259.426C319.072,258.573 319.348,257.725 319.638,256.887L315.058,255.127L317.136,249.719L321.728,251.484C322.079,250.666 322.444,249.856 322.824,249.049L318.438,246.804L321.079,241.647L325.478,243.9C325.914,243.125 326.363,242.358 326.824,241.597L322.684,238.886L325.857,234.039L330.01,236.758C330.526,236.034 331.053,235.318 331.591,234.613L327.746,231.465L331.417,226.982L335.27,230.137C335.857,229.473 336.456,228.818 337.067,228.172L333.569,224.623L337.695,220.556L341.197,224.109C341.851,223.511 342.515,222.923 343.19,222.345L340.085,218.439L344.621,214.834L347.726,218.74C348.439,218.213 349.163,217.699 349.894,217.195L347.222,212.982L352.115,209.879L354.786,214.091C355.551,213.643 356.325,213.208 357.107,212.786L354.899,208.315L360.093,205.75L362.3,210.219C363.109,209.855 363.925,209.505 364.747,209.168L363.027,204.49L368.465,202.491L370.185,207.171C371.027,206.896 371.875,206.635 372.73,206.388L371.517,201.55L377.136,200.14L378.351,204.984C379.217,204.801 380.088,204.632 380.964,204.478L380.27,199.529L386.008,198.725L386.703,203.68C387.627,203.585 388.557,203.506 389.492,203.444L389.336,198.44L395.127,198.26L395.283,203.264ZM392.827,217.332C428.891,216.209 459.083,244.577 460.206,280.642C461.329,316.706 432.961,346.898 396.897,348.021C360.832,349.144 330.64,320.776 329.517,284.712C328.394,248.647 356.762,218.456 392.827,217.332ZM308.17,144.923C315.598,144.606 316.595,144.31 324.563,143.529C329.346,143.06 333.107,142.297 335.428,141.736C337.119,141.329 337.607,141.809 336.865,143.028C334.793,146.431 330.701,150.444 326.803,153.217C321.822,156.761 312.742,159.598 308.941,159.88L298.58,194.521L331.196,221.802C328.501,224.611 325.99,227.599 323.682,230.747L294.935,206.703L272.82,280.639C276.792,283.124 279.97,286.861 281.718,291.419L306.816,288.291C307.034,291.867 307.466,295.386 308.099,298.834L283.033,301.958C281.923,311.225 274.958,319.132 265.307,320.993C262.989,321.44 260.686,321.506 258.46,321.234L253.467,337.927L262.333,339.286L262.354,343.501L248.596,345.67L248.122,345.672L308.17,144.923ZM390.383,271.306C391.751,270.766 393.24,270.467 394.797,270.459C401.536,270.426 407.033,275.869 407.067,282.607C407.1,289.345 401.657,294.843 394.918,294.876C390.602,294.898 386.795,292.671 384.606,289.297L334.534,295.538C333.817,292.119 333.383,288.596 333.259,284.995L381.37,278.998L344.122,247.843C346.344,244.629 348.864,241.636 351.642,238.903L390.383,271.306Z" style="fill:rgb(224,21,21);"/>
            </g>
        </g>
    </g>
</svg>
