<svg width="45" height="46" viewBox="0 0 45 46" fill="#FFFFF" xmlns="http://www.w3.org/2000/svg">
<path d="M33.75 8.90014C30.7663 5.91645 26.7196 4.24023 22.5 4.24023C18.2804 4.24023 14.2337 5.91645 11.25 8.90014C8.2663 11.8838 6.59009 15.9306 6.59009 20.1501C6.59009 24.3697 8.2663 28.4165 11.25 31.4001L21.1312 41.3001C21.3055 41.4759 21.5129 41.6154 21.7414 41.7106C21.9699 41.8058 22.215 41.8548 22.4625 41.8548C22.71 41.8548 22.9551 41.8058 23.1836 41.7106C23.4121 41.6154 23.6194 41.4759 23.7937 41.3001L33.75 31.3064C36.7212 28.3351 38.3904 24.3052 38.3904 20.1033C38.3904 15.9013 36.7212 11.8714 33.75 8.90014V8.90014ZM31.0687 28.6251L22.5 37.2314L13.9312 28.6251C12.2384 26.9307 11.0859 24.7725 10.6194 22.4232C10.153 20.0739 10.3935 17.639 11.3106 15.4264C12.2277 13.2138 13.7801 11.3227 15.7718 9.99228C17.7634 8.66183 20.1048 7.95173 22.5 7.95173C24.8951 7.95173 27.2365 8.66183 29.2282 9.99228C31.2198 11.3227 32.7723 13.2138 33.6894 15.4264C34.6065 17.639 34.847 20.0739 34.3806 22.4232C33.9141 24.7725 32.7616 26.9307 31.0687 28.6251V28.6251ZM16.875 14.3939C15.3613 15.9122 14.5114 17.9687 14.5114 20.1126C14.5114 22.2566 15.3613 24.3131 16.875 25.8314C17.9995 26.9579 19.4317 27.7272 20.9918 28.0428C22.552 28.3584 24.1705 28.2062 25.6445 27.6054C27.1185 27.0046 28.3822 25.9819 29.2771 24.6656C30.1721 23.3493 30.6584 21.798 30.675 20.2064C30.6834 19.1436 30.4787 18.09 30.0729 17.1077C29.6672 16.1255 29.0685 15.2346 28.3125 14.4876C27.5694 13.7275 26.6833 13.1218 25.7052 12.7054C24.7271 12.289 23.6763 12.0702 22.6132 12.0614C21.5502 12.0527 20.496 12.2543 19.5112 12.6546C18.5264 13.0549 17.6305 13.646 16.875 14.3939V14.3939ZM25.6687 23.1689C24.9582 23.8903 24.0191 24.3425 23.0121 24.4481C22.0051 24.5538 20.9926 24.3063 20.1478 23.7481C19.303 23.1899 18.6784 22.3556 18.3806 21.3878C18.0829 20.42 18.1306 19.3788 18.5155 18.4423C18.9005 17.5058 19.5988 16.732 20.4911 16.2534C21.3834 15.7747 22.4142 15.6209 23.4074 15.8182C24.4005 16.0154 25.2943 16.5516 25.9359 17.3349C26.5776 18.1182 26.9272 19.1001 26.925 20.1126C26.8977 21.27 26.4122 22.3693 25.575 23.1689H25.6687Z" fill="#E01515"/>
</svg>
