<svg width="132" height="54" viewBox="0 0 132 54" fill="none" xmlns="http://www.w3.org/2000/svg">
<path d="M16 24.5C14.6193 24.5 13.5 25.6193 13.5 27C13.5 28.3807 14.6193 29.5 16 29.5V24.5ZM117.768 28.7678C118.744 27.7915 118.744 26.2085 117.768 25.2322L101.858 9.32233C100.882 8.34602 99.2986 8.34602 98.3223 9.32233C97.346 10.2986 97.346 11.8816 98.3223 12.8579L112.464 27L98.3223 41.1421C97.346 42.1184 97.346 43.7014 98.3223 44.6777C99.2986 45.654 100.882 45.654 101.858 44.6777L117.768 28.7678ZM16 29.5H116V24.5H16V29.5Z" fill="#E01515"/>
</svg>
