<svg width="33" height="33" viewBox="0 0 33 33" fill="none" xmlns="http://www.w3.org/2000/svg">
<path d="M26.125 5.50049H6.875C5.78098 5.50049 4.73177 5.93509 3.95818 6.70867C3.1846 7.48226 2.75 8.53147 2.75 9.62549V23.3755C2.75 24.4695 3.1846 25.5187 3.95818 26.2923C4.73177 27.0659 5.78098 27.5005 6.875 27.5005H26.125C27.219 27.5005 28.2682 27.0659 29.0418 26.2923C29.8154 25.5187 30.25 24.4695 30.25 23.3755V9.62549C30.25 8.53147 29.8154 7.48226 29.0418 6.70867C28.2682 5.93509 27.219 5.50049 26.125 5.50049V5.50049ZM6.875 8.25049H26.125C26.4897 8.25049 26.8394 8.39535 27.0973 8.65322C27.3551 8.91108 27.5 9.26082 27.5 9.62549L16.5 16.3355L5.5 9.62549C5.5 9.26082 5.64487 8.91108 5.90273 8.65322C6.16059 8.39535 6.51033 8.25049 6.875 8.25049V8.25049ZM27.5 23.3755C27.5 23.7402 27.3551 24.0899 27.0973 24.3478C26.8394 24.6056 26.4897 24.7505 26.125 24.7505H6.875C6.51033 24.7505 6.16059 24.6056 5.90273 24.3478C5.64487 24.0899 5.5 23.7402 5.5 23.3755V12.7605L15.785 19.0442C15.994 19.1649 16.2311 19.2285 16.4725 19.2285C16.7139 19.2285 16.951 19.1649 17.16 19.0442L27.5 12.7605V23.3755Z" fill="#E01515"/>
</svg>
