<svg width="34" height="33" viewBox="0 0 34 33" fill="none" xmlns="http://www.w3.org/2000/svg">
<path d="M27.1887 17.8752C26.8862 17.8752 26.57 17.779 26.2675 17.7102C25.6554 17.5734 25.0535 17.3942 24.4662 17.174C23.8284 16.9419 23.1272 16.954 22.4977 17.2078C21.8681 17.4617 21.3547 17.9394 21.0562 18.549L20.7537 19.1815C19.4184 18.4241 18.1847 17.5001 17.0825 16.4315C16.0139 15.3293 15.0898 14.0956 14.3325 12.7602L14.965 12.4715C15.5746 12.173 16.0523 11.6596 16.3062 11.0301C16.56 10.4005 16.5721 9.69937 16.34 9.06149C16.1216 8.46891 15.9425 7.8626 15.8037 7.24649C15.735 6.94399 15.68 6.62774 15.6387 6.32524C15.4718 5.35672 14.9645 4.47964 14.2082 3.85195C13.452 3.22426 12.4964 2.88721 11.5137 2.90149H7.37499C6.79371 2.90073 6.21882 3.02284 5.68803 3.2598C5.15723 3.49676 4.68252 3.84323 4.29499 4.27649C3.89943 4.72152 3.6049 5.2469 3.43163 5.81654C3.25837 6.38619 3.21047 6.98659 3.29124 7.57649C4.03867 13.2994 6.65341 18.6159 10.73 22.7015C14.8156 26.7781 20.1321 29.3928 25.855 30.1402C26.0335 30.1539 26.2127 30.1539 26.3912 30.1402C27.4052 30.1417 28.3842 29.7697 29.1412 29.0952C29.5745 28.7077 29.921 28.233 30.1579 27.7022C30.3949 27.1714 30.517 26.5965 30.5162 26.0152V21.8902C30.5088 20.9402 30.1737 20.0218 29.5674 19.2903C28.9611 18.5587 28.1209 18.0589 27.1887 17.8752ZM27.8625 26.1252C27.862 26.3171 27.8214 26.5068 27.7433 26.682C27.6651 26.8572 27.5512 27.0142 27.4087 27.1427C27.258 27.28 27.0787 27.3821 26.8837 27.4416C26.6887 27.501 26.4829 27.5164 26.2812 27.4865C21.1501 26.8164 16.3816 24.478 12.71 20.8315C9.03527 17.1568 6.67653 12.3716 5.99999 7.21899C5.97012 7.01733 5.98547 6.81154 6.04492 6.61654C6.10437 6.42154 6.20644 6.24219 6.34374 6.09149C6.47385 5.94733 6.63301 5.83236 6.81076 5.75415C6.98851 5.67594 7.1808 5.63627 7.37499 5.63774H11.5C11.8178 5.62998 12.1286 5.7326 12.3793 5.92814C12.63 6.12369 12.8051 6.40007 12.875 6.71024C12.875 7.08149 12.9987 7.46649 13.0812 7.83774C13.2402 8.55806 13.4516 9.26578 13.7137 9.95524L11.7887 10.8627C11.4579 11.0146 11.2007 11.2915 11.0737 11.6327C10.9362 11.9675 10.9362 12.343 11.0737 12.6777C13.0526 16.9165 16.46 20.3238 20.6987 22.3027C21.0335 22.4403 21.409 22.4403 21.7437 22.3027C22.0849 22.1757 22.3619 21.9186 22.5137 21.5877L23.38 19.6627C24.0894 19.9214 24.8151 20.1327 25.5525 20.2952C25.91 20.3777 26.295 20.4465 26.6662 20.5015C26.9764 20.5713 27.2528 20.7465 27.4483 20.9972C27.6439 21.2479 27.7465 21.5586 27.7387 21.8765L27.8625 26.1252ZM19.75 2.75024C19.4337 2.75024 19.1037 2.75024 18.7875 2.75024C18.4228 2.78124 18.0854 2.95583 17.8495 3.23562C17.6135 3.5154 17.4984 3.87745 17.5294 4.24212C17.5604 4.60679 17.735 4.94422 18.0147 5.18016C18.2945 5.4161 18.6566 5.53124 19.0212 5.50024H19.75C21.938 5.50024 24.0364 6.36944 25.5836 7.91661C27.1308 9.46379 28 11.5622 28 13.7502C28 13.9977 28 14.2315 28 14.479C27.9695 14.8417 28.0841 15.2018 28.3187 15.4801C28.5532 15.7585 28.8886 15.9325 29.2512 15.964H29.3612C29.7055 15.9654 30.0377 15.8376 30.2923 15.606C30.5468 15.3743 30.7053 15.0556 30.7362 14.7127C30.7362 14.3965 30.7362 14.0665 30.7362 13.7502C30.7362 10.8352 29.5792 8.03943 27.5193 5.97693C25.4593 3.91442 22.665 2.75389 19.75 2.75024V2.75024ZM22.5 13.7502C22.5 14.1149 22.6449 14.4647 22.9027 14.7225C23.1606 14.9804 23.5103 15.1252 23.875 15.1252C24.2397 15.1252 24.5894 14.9804 24.8473 14.7225C25.1051 14.4647 25.25 14.1149 25.25 13.7502C25.25 12.2916 24.6705 10.8926 23.6391 9.86116C22.6076 8.82971 21.2087 8.25024 19.75 8.25024C19.3853 8.25024 19.0356 8.39511 18.7777 8.65297C18.5199 8.91084 18.375 9.26057 18.375 9.62524C18.375 9.98992 18.5199 10.3397 18.7777 10.5975C19.0356 10.8554 19.3853 11.0002 19.75 11.0002C20.4793 11.0002 21.1788 11.29 21.6945 11.8057C22.2103 12.3214 22.5 13.0209 22.5 13.7502Z" fill="#E01515"/>
</svg>
