<svg width="37" height="37" viewBox="0 0 37 37" fill="none" xmlns="http://www.w3.org/2000/svg">
<path d="M32.6063 4.40923C32.0173 3.80885 31.2704 3.38744 30.4519 3.19374C29.6335 3.00004 28.7769 3.04196 27.9813 3.31465L6.16669 10.6067C5.28689 10.8947 4.51817 11.4487 3.96666 12.1922C3.41515 12.9358 3.10805 13.8322 3.08775 14.7577C3.06744 15.6832 3.33494 16.5922 3.85331 17.3592C4.37168 18.1262 5.11536 18.7134 5.98169 19.0396L14.06 22.123C14.244 22.1933 14.4115 22.3008 14.552 22.4387C14.6926 22.5767 14.8033 22.7421 14.8771 22.9247L17.9604 31.0184C18.2743 31.8725 18.8438 32.609 19.5915 33.1277C20.3391 33.6463 21.2285 33.9219 22.1384 33.9167H22.2463C23.1728 33.8999 24.0709 33.5935 24.8146 33.0406C25.5583 32.4876 26.1103 31.7159 26.3934 30.8334L33.6854 8.98798C33.9506 8.2001 33.9901 7.35373 33.7994 6.54457C33.6087 5.73542 33.1954 4.99576 32.6063 4.40923ZM30.8334 8.01673L23.4642 29.8776C23.3786 30.1542 23.2068 30.3963 22.9737 30.5683C22.7407 30.7403 22.4588 30.8332 22.1692 30.8334C21.8813 30.8381 21.5988 30.7551 21.3592 30.5954C21.1196 30.4357 20.9343 30.2068 20.8279 29.9392L17.7446 21.8455C17.5211 21.2574 17.1763 20.7229 16.7328 20.2767C16.2892 19.8305 15.7568 19.4825 15.17 19.2555L7.07627 16.1721C6.80323 16.0721 6.56853 15.8888 6.40532 15.6481C6.2421 15.4074 6.15863 15.1216 6.16669 14.8309C6.16693 14.5413 6.25983 14.2594 6.43182 14.0263C6.6038 13.7933 6.84584 13.6215 7.12252 13.5359L28.9834 6.24382C29.2343 6.14152 29.5096 6.11412 29.7758 6.16492C30.042 6.21572 30.2879 6.34256 30.4835 6.53008C30.6792 6.71761 30.8164 6.95781 30.8785 7.22164C30.9406 7.48546 30.9249 7.76162 30.8334 8.01673Z" fill="#E01515"/>
</svg>
